<svg xmlns="http://www.w3.org/2000/svg" style="height:100%;width:100%" viewBox="0 0 1024 1024"><path fill="#222326" d="M0 512a512 512 0 1 0 1024 0A512 512 0 1 0 0 512"/><path fill="#fff" d="M512 192a320 320 0 1 0 320 320 320 320 0 0 0-320-320m0 589.76A269.76 269.76 0 1 1 781.76 512 270.08 270.08 0 0 1 512 781.76"/><path fill="#fff" d="M622.4 564.16V464a98.9 98.9 0 0 0-8-36.16 66.56 66.56 0 0 0-20.16-26.24 100.2 100.2 0 0 0-32-16 113.3 113.3 0 0 0-38.08-6.08 128 128 0 0 0-42.24 6.08 106.2 106.2 0 0 0-30.08 16 74.6 74.6 0 0 0-20.16 24 67.2 67.2 0 0 0-6.08 28.16h60.16a26.24 26.24 0 0 1 8.32-20.16 34.24 34.24 0 0 1 25.92-8 50.24 50.24 0 0 1 32 10.24 34.56 34.56 0 0 1 10.24 25.92v14.08H528A134.72 134.72 0 0 0 445.76 496a64 64 0 0 0-28.16 56 66.2 66.2 0 0 0 6.08 28.16 59.2 59.2 0 0 0 16 22.08 107.8 107.8 0 0 0 26.24 14.08 79.4 79.4 0 0 0 32 6.08 72 72 0 0 0 20.16-1.92c8-2.24 11.84-4.16 17.92-6.08a56.6 56.6 0 0 0 14.08-8c4.16-4.16 8-6.08 12.16-10.24 0 4.16 1.92 8 1.92 12.16s1.92 8 4.16 9.92h62.08v-3.84a131 131 0 0 1-6.08-20.16 138 138 0 0 1-1.92-30.08m-64-12.16-8 8a21.12 21.12 0 0 1-9.92 8.32 105 105 0 0 1-14.08 5.76 35.2 35.2 0 0 1-16 2.24 38.4 38.4 0 0 1-26.24-8 25.92 25.92 0 0 1-8-20.16 34.9 34.9 0 0 1 1.92-14.08c2.24-6.08 6.08-8 10.24-12.16a44.2 44.2 0 0 1 16-8A86.4 86.4 0 0 1 528 512h30.08z"/></svg>