<svg xmlns="http://www.w3.org/2000/svg" fill="currentColor" style="height:100%;width:100%" viewBox="0 0 1024 1024"><path d="M822.625 521.377c-12.513-12.513-32.735-12.513-45.248 0L544 754.753V192c0-17.665-14.336-32-32.001-32s-32 14.335-32 32v562.753L246.622 521.377c-12.513-12.513-32.735-12.513-45.248 0s-12.513 32.735 0 45.248l288 287.968c2.944 2.976 6.496 5.312 10.432 6.945A31.4 31.4 0 0 0 512 864c4.16 0 8.32-.833 12.224-2.463 3.936-1.633 7.455-3.969 10.431-6.945l288-287.968c12.48-12.513 12.48-32.737-.03-45.248z"/></svg>