<svg xmlns="http://www.w3.org/2000/svg" style="height:100%;width:100%" viewBox="0 0 2304 1024"><path fill="#fff" d="M384 64h1536a256 256 0 0 1 256 256v384a256 256 0 0 1-256 256H128V320A256 256 0 0 1 384 64"/><path fill="#ff9b48" d="M1920 64a256 256 0 0 1 256 256v384a256 256 0 0 1-256 256H128V320A256 256 0 0 1 384 64zM592.64 320H384v456.96h208.64q72.96 0 113.28-26.88c31.552-21.76 47.36-55.488 47.36-101.12 0-31.168-7.68-55.872-23.04-74.24s-38.208-30.528-68.48-36.48c22.208-8.128 39.872-20.672 53.12-37.76q19.2-26.88 19.2-65.28c0-35.008-12.16-62.72-36.48-83.2-22.4-18.944-52.48-29.44-90.368-31.616zm559.36 0H823.68v456.96h339.2v-59.52H893.44V572.16h243.2v-59.52h-243.2V379.52H1152zm421.12 0h-374.4v59.52h152.96v397.44h69.12V379.52h152.32zm265.6 0h-79.36l-176 456.96h74.24l42.88-117.76h196.48l42.88 117.76h74.88zM584.96 570.88c33.728 0 58.432 5.952 74.24 17.92 16.192 12.352 24.32 32 24.32 58.88 0 26.048-10.432 45.248-31.36 57.6-17.472 9.408-40.512 14.08-69.12 14.08H453.76V570.88zm1215.36-176 75.52 206.72H1721.6l76.16-206.72zM575.36 377.6c31.552 0 54.208 5.312 67.84 16q21.12 15.36 21.12 49.92 0 36.48-21.12 53.76c-14.528 11.072-37.568 16.64-69.12 16.64H453.76V377.6z"/></svg>