<svg xmlns="http://www.w3.org/2000/svg" style="height:100%;width:100%" viewBox="0 0 1024 1024"><path fill="#f3ba2f" d="M0 512a512 512 0 1 0 1024 0A512 512 0 1 0 0 512"/><path fill="#fff" d="M379.408 432.878 512 300.233 644.698 432.93l77.17-77.17L512 145.895 302.238 355.708zM170.544 487.35l77.169-77.17 77.17 77.17-77.17 77.17zm208.864 54.473L512 674.468 644.698 541.77l77.222 77.117-.053.052L512 828.754 302.238 618.992l-.105-.105zm319.71-54.42 77.169-77.17 77.17 77.17-77.17 77.17zm0 0"/><path fill="#fff" d="M590.278 487.297 512 409.02l-57.85 57.851-6.651 6.65-13.724 13.725-.106.105.106.106L512 565.68l78.278-78.278.053-.053z"/></svg>