<svg xmlns="http://www.w3.org/2000/svg" style="height:100%;width:100%" viewBox="0 0 1024 1024"><path fill="#00f0ff" d="M0 160C0 71.632 71.632 0 160 0h704c88.368 0 160 71.632 160 160v704c0 88.368-71.632 160-160 160H160C71.632 1024 0 952.368 0 864z"/><path fill="#1b1b1b" d="M477.808 403.632h191.184l195.584 194.352c12.736 12.64 12.8 33.216.16 45.92L613.84 896H416.944l59.536-57.888L695.12 620.88 479.248 403.6"/><path fill="#1b1b1b" d="M556.4 620.384H365.168L169.584 426.032a32.48 32.48 0 0 1-.128-45.904L420.304 128h196.944l-59.552 57.888L339.072 403.12 554.944 620.4"/></svg>