<svg xmlns="http://www.w3.org/2000/svg" fill="currentColor" style="height:100%;width:100%" viewBox="0 0 1024 1024"><path d="M337.28 138.688a27.97 27.97 0 0 0-27.968 27.968v78.72h377.344c50.816 0 92.032 41.152 92.032 91.968v377.344h78.656a28.03 28.03 0 0 0 27.968-28.032v-520a28.03 28.03 0 0 0-27.968-27.968zm441.408 640v78.656c0 50.816-41.216 91.968-92.032 91.968h-520a92.03 92.03 0 0 1-91.968-91.968V337.28c0-50.816 41.152-92.032 91.968-92.032h78.72v-78.592c0-50.816 41.152-91.968 91.968-91.968h520c50.816 0 91.968 41.152 91.968 91.968v520c0 50.816-41.152 92.032-91.968 92.032h-78.72zM166.656 309.312a27.97 27.97 0 0 0-27.968 28.032v520c0 15.424 12.544 27.968 27.968 27.968h520a28.03 28.03 0 0 0 28.032-27.968V337.28a28.03 28.03 0 0 0-28.032-28.032h-520z"/></svg>