<svg xmlns="http://www.w3.org/2000/svg" fill="currentColor" style="height:100%;width:100%" viewBox="0 0 1024 1024"><path d="M213.333 85.333a128 128 0 0 0-128 128v469.334a128 128 0 0 0 128 128 128 128 0 0 0 128 128h469.334a128 128 0 0 0 128-128V341.333a128 128 0 0 0-128-128 128 128 0 0 0-128-128zm597.334 213.334a42.667 42.667 0 0 1 42.666 42.666v469.334a42.667 42.667 0 0 1-42.666 42.666H341.333a42.667 42.667 0 0 1-42.666-42.666h384a128 128 0 0 0 128-128zm-640-85.334a42.667 42.667 0 0 1 42.666-42.666h469.334a42.667 42.667 0 0 1 42.666 42.666v469.334a42.667 42.667 0 0 1-42.666 42.666H213.333a42.667 42.667 0 0 1-42.666-42.666z"/></svg>