<svg xmlns="http://www.w3.org/2000/svg" fill="currentColor" style="height:100%;width:100%" viewBox="0 0 1024 1024"><path d="M288 896H96c-17.7 0-32-14.3-32-32s14.3-32 32-32h192c17.7 0 32 14.3 32 32s-14.3 32-32 32m320 0H416c-17.7 0-32-14.3-32-32s14.3-32 32-32h192c17.7 0 32 14.3 32 32s-14.3 32-32 32m320 0H736c-17.7 0-32-14.3-32-32s14.3-32 32-32h192c17.7 0 32 14.3 32 32s-14.3 32-32 32M148.6 768H64v-84.6c0-28.2 5.5-55.8 16.3-81.9s26.4-49.4 46.4-69.4L572.2 86.6c18.1-18.1 42.2-28.1 67.8-28.1s49.7 10 67.8 28.1l37.6 37.6c18.1 18.1 28.1 42.2 28.1 67.8s-10 49.7-28.1 67.8L299.9 705.3c-20 20-43.3 35.6-69.4 46.4S176.9 768 148.6 768M128 704h20.6c40 0 77.7-15.6 106-43.9l445.5-445.5c12.4-12.4 12.4-32.7 0-45.1l-37.6-37.6c-12.4-12.4-32.7-12.4-45.1 0L171.9 577.3c-28.3 28.3-43.9 66-43.9 106z"/><path d="m489.375 214.637 45.254-45.255 127.985 127.986-45.254 45.254zm-352.02 383.975 45.255-45.254 96.024 96.024-45.255 45.254z"/></svg>