<svg xmlns="http://www.w3.org/2000/svg" style="height:100%;width:100%" viewBox="0 0 1024 1024"><path fill="#0090ff" d="M512 1024C230.4 1024 0 793.6 0 509.449 2.56 227.849 230.4-2.543 514.56.017c281.6 2.56 509.44 230.4 509.44 517.12C1021.44 796.16 793.6 1024 512 1024"/><path fill="#fff" d="m556.416 451.968-15.232 82.022 144.674 20.506-10.155 38.451-142.13-20.505c-10.155 33.322-15.224 69.205-27.922 99.968-12.689 35.89-25.378 71.773-40.61 105.096-20.31 43.58-55.834 74.343-104.055 82.031-27.921 5.12-58.377 2.56-81.22-15.386-7.62-5.12-15.233-15.377-15.233-23.065 0-10.257 5.078-23.074 12.69-28.203 5.077-2.56 17.766 0 25.378 2.56 7.62 7.697 15.232 17.954 20.309 28.203 15.232 20.505 35.533 23.074 55.842 7.688 22.844-20.505 35.533-48.7 43.145-76.893 15.232-61.526 30.464-120.483 43.144-182v-10.256l-134.52-20.506 5.078-38.451 139.605 20.514 17.758-79.471-144.674-23.066 5.077-41.01L503.117 400.7c5.077-15.386 7.612-28.194 12.689-41.011 12.689-46.14 25.378-92.28 55.842-133.291 30.455-41.02 65.988-66.645 119.296-64.085 22.835 0 45.679 7.68 60.91 25.625 2.535 2.56 7.613 7.697 7.613 12.817 0 10.257 0 23.074-7.612 30.763-10.155 7.688-22.844 5.12-32.998-5.12-7.612-7.697-12.69-15.386-20.31-23.074-15.223-20.506-38.067-23.074-55.833-5.12-12.69 12.808-25.379 30.754-32.999 48.69-17.758 53.838-30.455 110.226-48.222 166.631l139.597 20.506-10.155 38.451-134.519-20.505z"/></svg>