<svg xmlns="http://www.w3.org/2000/svg" fill="currentColor" style="height:100%;width:100%" viewBox="0 0 1024 1024"><path d="M793.738 503.746c-7.948 0-14.411 6.463-14.411 14.411v317.921c0 34.937-28.428 63.365-63.365 63.365H604.034V678.821c0-7.948-6.442-14.41-14.39-14.41H432.28c-7.948 0-14.411 6.462-14.411 14.41v220.623h-111.95c-34.936 0-63.343-28.428-63.343-63.365v-317.92c0-7.949-6.441-14.412-14.411-14.412-7.948 0-14.39 6.463-14.39 14.411V836.08c0 50.833 41.335 92.188 92.145 92.188h410.044c50.832 0 92.187-41.355 92.187-92.188V518.16c0-7.95-6.463-14.413-14.412-14.413M575.234 899.423H446.69v-206.19h128.544z"/><path d="m936.104 397.125-104.132-75.07c-13.625-9.891-25.59-33.211-25.59-49.915V148.662c0-29.368-23.889-53.256-53.235-53.256h-36.573c-29.325 0-53.17 23.888-53.17 53.256v41.028c0 5.285-1.245 7.642-1.376 7.839-.436 0-2.925-.153-7.38-3.384l-107.67-77.69c-13.057-9.477-23.603-17.119-25.874-18.865-2.794-2.402-6.616-4.018-10.175-3.887-3.341-.196-7.27 1.44-10.044 3.843-2.49 1.92-15.524 11.376-30.896 22.534L85.863 397.125c-11.53 8.34-19.106 20.678-21.377 34.761s1.07 28.168 9.346 39.588l14.63 20.35c9.825 13.691 25.525 21.508 43.036 21.508h.022a60 60 0 0 0 5.568-.262 14.43 14.43 0 0 0 7.03-2.642l366.833-264.686 366.897 264.686a14.4 14.4 0 0 0 7.03 2.642c1.878.175 3.734.262 5.59.262 17.578 0 33.256-7.84 42.928-21.486l14.695-20.35c17.207-23.845 11.814-57.187-11.987-74.371m-11.355 57.492-14.76 20.46c-4.15 5.808-10.962 9.236-18.779 9.454l-371.7-268.158-.02.021c-4.827-3.516-12.315-3.646-17.316.175L130.778 484.531c-7.84-.218-14.695-3.646-18.931-9.542l-14.63-20.394c-3.799-5.22-5.328-11.66-4.279-18.123 1.026-6.506 4.499-12.162 9.782-15.962l384.169-277.089c11.311-8.21 18.888-13.712 24.04-17.554 4.39 3.231 10.525 7.642 19.127 13.908l107.757 77.777c8.123 5.808 16.266 8.8 24.215 8.8 15.024 0 30.177-11.333 30.177-36.662v-41.028c0-13.472 10.939-24.434 24.368-24.434h36.573c13.451 0 24.433 10.962 24.433 24.434V272.14c0 25.853 16.464 58.038 37.514 73.258l104.155 75.112c10.916 7.883 13.362 23.19 5.501 34.107"/></svg>