<svg xmlns="http://www.w3.org/2000/svg" fill="currentColor" style="height:100%;width:100%" viewBox="0 0 1024 1024"><path d="M510.34 154.589c46.787 0 91.807 8.792 135.168 26.412a354 354 0 0 1 118.643 78.636 355.8 355.8 0 0 1 78.636 118.007c17.655 42.373 26.589 86.864 26.871 133.332a361.9 361.9 0 0 1-24.681 134.003 40 40 0 0 1-5.05 9.675 52 52 0 0 1-5.685 7.486c-8.121 8.086-18.255 12.04-30.402 11.793s-22.034-4.131-29.66-11.793c-12.43-12.889-15.29-29.06-8.581-48.623a315.3 315.3 0 0 0 28.566-121.856 301.8 301.8 0 0 0-21.398-123.374 308.8 308.8 0 0 0-70.762-108.65 312.7 312.7 0 0 0-132.273-79.307 316.2 316.2 0 0 0-149.362-7.133 313.2 313.2 0 0 0-138.7 64.336 351.3 351.3 0 0 1 108.65-62.217 351.8 351.8 0 0 1 120.02-20.727M217.97 350.49c12.43-.953 22.917 2.825 31.462 11.406 6.674 6.638 10.77 13.912 12.218 21.786 1.377 7.874.212 16.773-3.602 26.836a311.1 311.1 0 0 0-28.284 121.856 315.25 315.25 0 0 0 21.116 123.304 308.2 308.2 0 0 0 70.762 108.65 311.8 311.8 0 0 0 132.979 79.377 317.86 317.86 0 0 0 149.433 7.168 315.3 315.3 0 0 0 138.7-64.37 350.8 350.8 0 0 1-158.686 75.776 360.5 360.5 0 0 1-171.573-7.168 353.2 353.2 0 0 1-153-90.783 356.07 356.07 0 0 1-105.118-251.269 346.7 346.7 0 0 1 25.07-134.002 24.15 24.15 0 0 1 4.979-10.029c1.942-2.86 3.813-5.226 5.756-7.132 7.062-7.663 16.384-11.406 27.789-11.406"/></svg>