<svg xmlns="http://www.w3.org/2000/svg" fill="currentColor" style="height:100%;width:100%" viewBox="0 0 1024 1024"><path d="M208.832 483.043h184.94a72.95 72.95 0 0 0 72.846-72.846V225.363a73.06 73.06 0 0 0-72.846-72.952h-184.94a72.95 72.95 0 0 0-72.846 72.952v184.834a72.846 72.846 0 0 0 72.846 72.846m204.458-72.846a19.52 19.52 0 0 1-19.518 19.518h-184.94a19.52 19.52 0 0 1-19.518-19.518V225.363a19.625 19.625 0 0 1 19.518-19.624h184.94a19.625 19.625 0 0 1 19.518 19.624zm-10.665 136.84h-191.98a74.66 74.66 0 0 0-74.66 74.658v191.98a74.66 74.66 0 0 0 74.66 74.66h191.98a74.66 74.66 0 0 0 74.659-74.66v-191.98a74.66 74.66 0 0 0-74.66-74.659m-213.311 74.658a21.33 21.33 0 0 1 21.33-21.33h191.98a21.33 21.33 0 0 1 21.332 21.33v191.98a21.33 21.33 0 0 1-21.331 21.331h-191.98a21.33 21.33 0 0 1-21.331-21.33zm609.75-69.326H614.122a72.95 72.95 0 0 0-72.846 72.953v185.367a72.846 72.846 0 0 0 72.846 72.846h184.94a72.95 72.95 0 0 0 72.846-72.846V625.322a73.06 73.06 0 0 0-72.846-72.953m-204.46 72.953a19.625 19.625 0 0 1 19.519-19.625h184.94a19.625 19.625 0 0 1 19.518 19.625v185.367a19.52 19.52 0 0 1-19.518 19.518h-184.94a19.52 19.52 0 0 1-19.518-19.518zM701.26 508.854a68.15 68.15 0 0 0 48.422-20.052l118.174-118.174a68.473 68.473 0 0 0 0-96.843L749.682 155.504a68.58 68.58 0 0 0-96.843 0l-118.281 118.28a68.793 68.793 0 0 0 0 96.844l118.28 118.174a68.05 68.05 0 0 0 48.422 20.052m10.666-315.594 118.28 118.28a15.145 15.145 0 0 1 0 21.332l-118.28 118.281a15.145 15.145 0 0 1-21.331 0L572.314 332.872a15.145 15.145 0 0 1 0-21.331l118.28-118.281a15.36 15.36 0 0 1 21.332 0"/></svg>