<svg xmlns="http://www.w3.org/2000/svg" fill="currentColor" style="height:100%;width:100%" viewBox="0 0 1024 1024"><path d="M916.239 290.722H138.03c-11.304 0-20.466-9.162-20.466-20.466s9.162-20.466 20.466-20.466h778.208c11.303 0 20.466 9.163 20.466 20.466s-9.163 20.466-20.466 20.466m20.465 204.803c0 11.307-9.159 20.466-20.466 20.466H138.033c-11.308 0-20.466-9.159-20.466-20.466 0-11.298 9.158-20.466 20.466-20.466h778.204c11.307 0 20.466 9.168 20.466 20.466m-20.464 245.739H138.03c-11.304 0-20.466-9.163-20.466-20.467s9.162-20.466 20.466-20.466h778.208c11.303 0 20.466 9.163 20.466 20.466s-9.163 20.467-20.466 20.467"/></svg>