<svg xmlns="http://www.w3.org/2000/svg" fill="currentColor" style="height:100%;width:100%" viewBox="0 0 1024 1024"><path d="M557.554 976.356c-257.266 0-466.56-207.161-466.56-464.427 0-253.924 206.578-464.285 460.501-464.285h.356c10.766 0 20.622 3.954 25.443 13.611 4.878 9.757 3.74 20.395-2.915 29.028-55.723 72.22-85.163 158.108-85.163 249.372 0 225.892 183.78 409.387 409.671 409.387l5.248-.256c10.325-.142 20.978 5.86 25.842 15.644a28.3 28.3 0 0 1-2.916 30.052C837.902 910.08 703.204 976.356 557.554 976.356m-62.28-871.34c-196.08 30.267-347.39 201.147-347.39 404.794 0 225.877 183.78 409.657 409.67 409.657 108.687 0 210.404-42.055 286.579-116.978-231.567-27.193-411.805-224.626-411.805-463.36 0-83.428 21.618-163.3 62.948-234.112"/><path d="M578.83 879.132c-186.866 0-345.785-133.418-377.842-317.269a14.222 14.222 0 1 1 28.018-4.878c29.682 170.183 176.81 293.703 349.824 293.703a14.222 14.222 0 1 1 0 28.444M209.991 531.2c-7.538 0-13.838-6.997-14.194-14.606a444 444 0 0 1-.483-20.466c0-7.865 6.357-14.492 14.222-14.492s14.222 6.229 14.222 14.094c0 6.23.17 13.426.455 19.584.37 7.85-5.674 15.886-13.525 15.886zm387.015-221.27a25.344 25.344 0 1 0 50.688 0 25.344 25.344 0 1 0-50.688 0m164.722-121.656a25.344 25.344 0 1 0 50.688 0 25.344 25.344 0 1 0-50.688 0m-55.111 227.029a25.344 25.344 0 1 0 50.688 0 25.344 25.344 0 1 0-50.688 0"/></svg>