<svg xmlns="http://www.w3.org/2000/svg" style="height:100%;width:100%" viewBox="0 0 1024 1024"><path d="M512 0q512 0 512 512t-512 512T0 512 512 0"/><path fill="#c931f7" d="M320.17 631.865a18.2 18.2 0 0 1 13.085-5.518h453.973c8.079 0 12.345 10.24 6.543 16.213l-89.543 91.477a18.2 18.2 0 0 1-13.085 5.519H236.715c-8.079 0-12.345-10.24-6.543-16.157l89.885-91.534z"/><path fill="#1ce2af" d="M320.17 289.963a18.2 18.2 0 0 1 13.085-5.519h453.973c8.079 0 12.345 10.24 6.543 16.157l-89.543 91.534a18.2 18.2 0 0 1-13.085 5.518H236.715c-8.079 0-12.345-10.24-6.543-16.213l89.885-91.477z"/><path fill="#6697ce" d="M703.83 459.947a18.2 18.2 0 0 0-13.085-5.519H236.772c-8.079 0-12.345 10.24-6.543 16.157l89.543 91.477a18.2 18.2 0 0 0 13.085 5.518H786.83c8.078 0 12.345-10.24 6.542-16.156z"/></svg>