<svg xmlns="http://www.w3.org/2000/svg" fill="currentColor" style="height:100%;width:100%" viewBox="0 0 1024 1024"><path d="M512 200a312 312 0 1 0 312 312 312 312 0 0 0-312-312m0 549.333A237.333 237.333 0 1 1 749.333 512 237.6 237.6 0 0 1 512 749.333M480 44.32h64q5.333 0 5.333 5.333v102.24q0 5.334-5.333 5.334h-64q-5.333 0-5.333-5.334V49.653q0-5.333 5.333-5.333M158.707 203.876l45.255-45.255q3.771-3.771 7.542 0l72.295 72.295q3.771 3.77 0 7.542l-45.255 45.255q-3.771 3.771-7.542 0l-72.295-72.295q-3.771-3.77 0-7.542M49.76 474.613H152q5.333 0 5.333 5.334v64q0 5.333-5.333 5.333H49.76q-5.333 0-5.333-5.333v-64q0-5.334 5.333-5.334m109.07 337.809 72.295-72.295q3.77-3.77 7.542 0l45.255 45.255q3.771 3.771 0 7.543l-72.295 72.294q-3.77 3.771-7.542 0l-45.255-45.255q-3.771-3.77 0-7.542"/><path d="M480.107 866.613h64q5.333 0 5.333 5.334v102.24q0 5.333-5.333 5.333h-64q-5.334 0-5.334-5.333v-102.24q0-5.334 5.334-5.334m260.172-81.299 45.255-45.255q3.771-3.771 7.543 0l72.294 72.295q3.772 3.77 0 7.542l-45.255 45.255q-3.77 3.771-7.542 0l-72.295-72.295q-3.77-3.771 0-7.542m131.828-310.807h102.24q5.333 0 5.333 5.333v64q0 5.333-5.333 5.333h-102.24q-5.334 0-5.334-5.333v-64q0-5.333 5.334-5.333M740.211 230.852l72.295-72.296q3.77-3.77 7.542 0l45.255 45.255q3.771 3.772 0 7.543l-72.295 72.294q-3.77 3.772-7.542 0l-45.255-45.254q-3.771-3.772 0-7.543"/></svg>