<svg xmlns="http://www.w3.org/2000/svg" style="height:100%;width:100%" viewBox="0 0 48 48"><g fill="#fc72ff"><path d="M19.51 3.334a.5.5 0 1 0-1 0v1.567l-1.358-.783a.5.5 0 1 0-.5.866l1.358.784-1.357.783a.5.5 0 1 0 .5.866l1.356-.783V8.2a.5.5 0 0 0 1 0V6.633l1.357.784a.5.5 0 0 0 .5-.866l-1.356-.783 1.357-.784a.5.5 0 1 0-.5-.866l-1.358.784zm.843 16.59a1.8 1.8 0 0 1-.307.638 2.5 2.5 0 0 1-1.022.784 4 4 0 0 1-1.139.301q-.12.014-.24.023l-.018.001a1.16 1.16 0 0 0-1.081.866q-.045.18-.066.365c-.022.184-.034.373-.047.577v.003q-.012.22-.033.47a6.2 6.2 0 0 1-.58 1.961q-.093.195-.186.38c-.329.661-.626 1.26-.54 2.06.066.617.38 1.031.799 1.457.198.204.461.378.734.56.766.506 1.61 1.065 1.331 2.471-.227 1.14-2.108 2.336-4.753 2.754.257-.039-.308-1.006-.37-1.114l-.005-.007q-.107-.168-.217-.333l-.008-.012c-.214-.325-.427-.647-.594-1.005-.441-.939-.646-2.024-.465-3.053.164-.93.776-1.674 1.366-2.39q.145-.174.285-.348c.788-.984 1.616-2.274 1.8-3.55q.022-.169.043-.36v-.005c.026-.226.054-.473.098-.718.066-.427.2-.841.395-1.226.133-.252.309-.48.52-.672a.67.67 0 0 0 .128-.818l-4.215-7.617 6.055 7.506a.755.755 0 0 0 1.16.025.515.515 0 0 0 .015-.65c-.277-.355-.565-.716-.852-1.075l-.014-.017-.352-.441-1.524-1.895-3.058-3.782L10 8l3.788 3.7 3.256 3.615 1.624 1.812.443.5.004.003c.39.437.78.874 1.169 1.337l.088.108.02.168c.026.228.013.458-.04.681m9.694-.318c-.221.23-.36.522-.404.83a8.3 8.3 0 0 1-1.603-.494 5 5 0 0 1-.323-.153 5.5 5.5 0 0 1-1.118-.815c-.611-.571-1.102-1.213-1.584-1.844l-.123-.162a24 24 0 0 0-1.585-1.97 7.2 7.2 0 0 0-1.94-1.522 6.7 6.7 0 0 0-2.414-.693 5.7 5.7 0 0 1 2.58.317 6.8 6.8 0 0 1 2.238 1.427q.634.598 1.185 1.27c1.923-.38 3.59-.256 5.004.175a1.5 1.5 0 0 0-.05 1.63 1.5 1.5 0 0 0 .138 2.004m6.943 10.568c.789-1.03 1.248-3.355.194-5.3a1.5 1.5 0 0 1-2.303-.812 1.5 1.5 0 0 1-1.782-.83q-.267.03-.543-.043a1.5 1.5 0 0 1-1.068-1.086 1.5 1.5 0 0 1-1.565-.56c-1.133-.201-2.138-.503-2.84-1.256-.431 3.318 2.469 4.5 5.241 5.63 2.43.99 4.763 1.942 4.666 4.257m-15.835-5.917c.732-.07 2.291-.453 1.594-1.686a1.55 1.55 0 0 0-1.469-.748 1.44 1.44 0 0 0-1.246 1.093c-.217.807.013 1.449 1.121 1.34m-.21-9.755c-.459-.532-1.171-.812-1.87-.913a5 5 0 0 0-.05.527c-.03 1.454.484 3.05 1.478 4.16a3.7 3.7 0 0 0 1.13.866c.248.121.906.422 1.15.151a.18.18 0 0 0 .02-.175 1.3 1.3 0 0 0-.196-.325 2 2 0 0 1-.15-.225 7 7 0 0 0-.13-.228 4 4 0 0 1-.228-.438c-.167-.402-.254-.83-.34-1.258l-.053-.257c-.133-.66-.302-1.352-.761-1.885"/><path d="M30.753 26.098c-.712 1.996.436 3.682 1.578 5.359 1.277 1.874 2.546 3.737 1.192 6.007 2.63-1.091 3.88-4.387 2.788-7.002-.688-1.655-2.346-2.551-3.885-3.384-.597-.323-1.176-.636-1.673-.98m-7.698 4.765a6 6 0 0 0-1.337.763 9.7 9.7 0 0 1 2.91-.577q.266-.015.537-.027h.01c.315-.015.635-.03.961-.057a6 6 0 0 0 1.574-.325 3.8 3.8 0 0 0 1.419-.887c.405-.41.69-.926.822-1.489a3.33 3.33 0 0 0-.844-3.004c.181.462.293.948.33 1.443a3.4 3.4 0 0 1-.182 1.359 2.8 2.8 0 0 1-.716 1.082 3.7 3.7 0 0 1-1.13.704c-.579.234-1.233.33-1.915.43-.31.045-.627.092-.945.152q-.768.142-1.494.433"/><path fill-rule="evenodd" d="m31.319 39.105-.051.04a5 5 0 0 1-.37.282 4 4 0 0 1-.527.294c-.38.187-.798.282-1.222.278-1.146-.021-1.956-.879-2.43-1.847a14 14 0 0 1-.344-.778c-.175-.419-.35-.838-.587-1.225-.548-.9-1.487-1.624-2.586-1.49-.448.057-.868.26-1.117.65-.655 1.02.285 2.45 1.485 2.248q.154-.023.297-.082.143-.061.264-.161c.168-.14.294-.324.365-.53.08-.216.097-.45.051-.675a.93.93 0 0 0-.386-.577c.23.108.41.302.501.541.095.246.12.513.07.772a1.53 1.53 0 0 1-.342.73q-.142.161-.323.276-.18.113-.38.18c-.272.093-.56.123-.844.088a2.24 2.24 0 0 1-1.088-.474 3 3 0 0 1-.167-.144 4 4 0 0 1-.579-.618 6 6 0 0 0-.236-.25 4.7 4.7 0 0 0-1.338-.98 5 5 0 0 0-1.077-.336 7 7 0 0 0-.564-.091c-.02-.002-.056-.009-.1-.016l-.009-.002c-.157-.027-.414-.072-.459-.03a12 12 0 0 1 1.897-1.429 9.2 9.2 0 0 1 2.224-.956 6.3 6.3 0 0 1 2.488-.191c.43.051.85.16 1.25.324a3.9 3.9 0 0 1 1.144.71c.334.317.604.695.795 1.114.173.393.302.804.384 1.225.044.226.078.475.112.733.157 1.174.339 2.53 1.684 2.765q.128.026.26.037l.267.007q.277-.02.549-.08.563-.133 1.09-.373zm-10.14-2.033-.099-.11z" clip-rule="evenodd"/><path d="M30.695 14.397a.5.5 0 0 0 .183.683l1.553.897-1.368.366a.5.5 0 1 0 .259.966l2.334-.625 1.667.963-1.772 1.023-2.333-.625a.5.5 0 1 0-.259.966l1.367.366-1.45.837a.5.5 0 1 0 .5.866l1.451-.837-.366 1.368a.5.5 0 0 0 .966.259l.625-2.334 1.77-1.022v2.045l-1.707 1.708a.5.5 0 1 0 .707.707l1-1v1.673a.5.5 0 0 0 1 0v-1.675l1.002 1.002a.5.5 0 0 0 .707-.707l-1.71-1.71v-2.045l1.774 1.024.625 2.334a.5.5 0 0 0 .966-.259l-.367-1.368 1.451.837a.5.5 0 0 0 .5-.866l-1.45-.837 1.367-.366a.5.5 0 0 0-.259-.966l-2.333.625-1.772-1.023 1.668-.963 2.334.625a.5.5 0 0 0 .259-.966l-1.368-.366 1.553-.897a.5.5 0 0 0-.5-.866l-1.553.896.367-1.367a.5.5 0 0 0-.966-.258l-.626 2.333-1.67.964v-1.927l1.71-1.71a.5.5 0 0 0-.707-.706l-1.002 1.002v-1.794a.5.5 0 1 0-1 0v1.792l-1-1a.5.5 0 0 0-.707.707l1.707 1.707v1.927l-1.667-.962-.625-2.333a.5.5 0 1 0-.966.258l.366 1.368-1.552-.897a.5.5 0 0 0-.683.183M10.93 41.462a.5.5 0 0 1-.5.5H8.864l.784 1.359a.5.5 0 0 1-.866.5l-.784-1.358-.783 1.357a.5.5 0 0 1-.866-.5l.783-1.358H5.564a.5.5 0 1 1 0-1h1.567l-.783-1.356a.5.5 0 1 1 .866-.5l.783 1.357.784-1.358a.5.5 0 0 1 .866.5l-.784 1.357h1.568a.5.5 0 0 1 .5.5"/></g></svg>