<svg xmlns="http://www.w3.org/2000/svg" fill="currentColor" style="height:100%;width:100%" viewBox="0 0 1024 1024"><path d="M512 625.778c-62.578 0-113.778-51.2-113.778-113.778S449.422 398.222 512 398.222 625.778 449.422 625.778 512 574.578 625.778 512 625.778m0-398.222c-62.578 0-113.778-51.2-113.778-113.778S449.422 0 512 0s113.778 51.2 113.778 113.778S574.578 227.556 512 227.556m0 568.888c62.578 0 113.778 51.2 113.778 113.778S574.578 1024 512 1024s-113.778-51.2-113.778-113.778S449.422 796.444 512 796.444"/></svg>