<svg xmlns="http://www.w3.org/2000/svg" fill="none" style="height:100%;width:100%" viewBox="0 0 18 18"><path fill="#c90000" fill-rule="evenodd" d="M17.987 8.393H14.75c-.307 0-.598.14-.79.38l-3.075 3.842a.202.202 0 0 0 .158.329h6.056A9 9 0 0 1 9.003 18a9 9 0 0 1-8.095-5.056h7.479c.628 0 1.22-.292 1.603-.79l2.908-3.78c.383-.498.975-.79 1.603-.79h3.395q.063.399.09.81m.013.96h-1.8a.4.4 0 0 0-.336.181l-.383.573a.101.101 0 0 0 .085.157h2.353q.064-.448.081-.91m-.245 1.77h-2.98a.2.2 0 0 0-.167.089l-.489.714a.101.101 0 0 0 .084.158h3.261q.172-.469.29-.96m-.08-4.55h-4.917c-.71 0-1.382.324-1.823.881L7.871 11.32a1.62 1.62 0 0 1-1.268.613H.489q-.154-.445-.26-.91H5.25c.628 0 1.22-.292 1.603-.79l2.908-3.78c.383-.498.975-.79 1.603-.79h6.003q.176.444.308.91m-.787-1.921H9.622c-.71 0-1.382.324-1.823.88L4.735 9.399a1.62 1.62 0 0 1-1.268.613H.057A9 9 0 0 1 0 9c0-4.97 4.031-9 9.003-9a9 9 0 0 1 7.885 4.652" clip-rule="evenodd"/></svg>