<svg xmlns="http://www.w3.org/2000/svg" style="height:100%;width:100%" viewBox="0 0 56 56"><path fill="#004f8d" d="M0 0h56v56H0z"/><path fill="#fff" d="M14 36c3.6 0 6-2.01 6-4.77 0-2.1-1.5-3.32-3.79-3.53v-.07c1.81-.37 3.29-1.7 3.29-3.63 0-2.43-2.2-4-5.53-4-3.24 0-5.41 1.76-5.63 4.43v.07h2.95l.01-.04c.13-1.2 1.19-1.96 2.7-1.96s2.5.73 2.5 1.98c0 1.26-1.17 2.02-2.79 2.02H12V29h1.76c1.87 0 3.25.75 3.25 2.23 0 1.26-1.35 2.27-3 2.27-1.67 0-2.78-.9-2.92-2H8c.21 2.67 2.5 4.5 6 4.5m14 0c3.9 0 6-3.08 6-8 0-4.91-2.1-8-6-8s-6 3.08-6 8 2.1 8 6 8m0-2.5c-1.92 0-3-2.1-3-5.5s1.08-5.5 3-5.5 3 2.1 3 5.5-1.08 5.5-3 5.5M42 36c3.9 0 6-3.08 6-8 0-4.91-2.1-8-6-8s-6 3.08-6 8 2.1 8 6 8m0-2.5c-1.92 0-3-2.1-3-5.5s1.08-5.5 3-5.5 3 2.1 3 5.5-1.08 5.5-3 5.5"/></svg>