<svg xmlns="http://www.w3.org/2000/svg" style="height:100%;width:100%" viewBox="0 0 56 56"><path fill="#004f8d" d="M0 0h56v56H0z"/><path fill="#fff" d="M13.03 36c3.68 0 6.22-2.14 6.22-5.39v-.02c0-2.93-2.21-5.05-5.26-5.05-1.63 0-2.96.64-3.63 1.68h-.06l.39-4.37h7.43V20H8.02l-.74 9.38h2.93c.19-.32.44-.62.77-.86a3.33 3.33 0 0 1 2.07-.65c1.74 0 2.98 1.15 2.99 2.78v.02c0 1.66-1.24 2.82-3 2.82-1.55 0-2.67-.9-2.9-2.07l-.03-.08H7l.01.16c.2 2.6 2.52 4.5 6.02 4.5m14.44 0c4.08 0 6.55-3.02 6.55-7.96v-.02c0-4.94-2.47-8.02-6.55-8.02s-6.55 3.08-6.55 8.02v.02c0 4.94 2.47 7.96 6.55 7.96m0-2.54c-2 0-3.15-2.01-3.15-5.42v-.02c0-3.41 1.14-5.42 3.15-5.42 2 0 3.15 2 3.15 5.42v.02c0 3.4-1.14 5.42-3.15 5.42M42.45 36c4.08 0 6.55-3.02 6.55-7.96v-.02c0-4.94-2.47-8.02-6.55-8.02s-6.55 3.08-6.55 8.02v.02c0 4.94 2.47 7.96 6.55 7.96m0-2.54c-2 0-3.16-2.01-3.16-5.42v-.02c0-3.41 1.15-5.42 3.16-5.42 2 0 3.15 2 3.15 5.42v.02c0 3.4-1.15 5.42-3.15 5.42"/></svg>