<svg xmlns="http://www.w3.org/2000/svg" style="height:100%;width:100%" viewBox="0 0 56 56"><path fill="none" d="M0 0h56v56H0z"/><path fill="#fff" d="M44 28a16 16 0 1 1-31.99.01 16 16 0 0 1 31.99 0z"/><path fill="#172b7b" d="M43.9 29.8a15.99 15.99 0 0 1-31.79 0c1.25 0 2.48-.82 3.8-1.82 1.56-1.2 3.28-2.61 5.82-2.61 3.28 0 6.27 2.89 6.27 2.89s3-2.9 6.27-2.9c2.55 0 4.27 1.43 5.83 2.62 1.31 1 2.54 1.81 3.8 1.81z"/><path fill="#e60012" d="M42.9 22.19c-2.63-.01-3.56-.98-4.7-1.74a7.33 7.33 0 0 0-4.4-1.23c-3.47 0-5.8 2.32-5.8 2.32s-2.32-2.32-5.8-2.32c-2.1 0-3.37.54-4.4 1.23-1.13.76-2.07 1.73-4.7 1.74a16 16 0 0 1 29.8 0"/><path fill="#fff" d="m27 32.6-1-.75v2.35c0 .67.4 1 1 1z"/><path fill="#fff" d="M27.19 35.44c.6 0 .81-.34.81-1v-2.6l1 .72v1.9c0 1.13-.45 1.7-1.4 1.7-.6 0-1-.24-1.21-.73h.8zM29.55 32l.47 1h.54v-1h-1zM32 36.3V33h1.13l-.52-1H31v3.76l1 .53zm-12.34-4.46.46 3.66.94.7-.47-3.66zm-.16.47-1.11 3.2.7.52.67-1.89zm-2.05.4-.79 2.98.67.51.6-2.24zm1.03 2.06-1.14-2.93 1.08.78.43 1.08zm3.57-.45a1.6 1.6 0 0 1 2.23-1.48 1.57 1.57 0 0 0-2.97.8c0 .66.38 1.22.93 1.48-.13-.23-.2-.5-.2-.8zm.05 1.1a1.82 1.82 0 0 0 1.47.71 1.87 1.87 0 0 0 1.88-1.85 1.84 1.84 0 0 0-.97-1.65 1.92 1.92 0 0 1-1.66 2.92 1.8 1.8 0 0 1-.71-.13zm12.2-3.48 1.01.55 1.5 3.71-1.02-.55zm-1.44 3.66.66-1.28h1.5l.31.68h-1.17l-.53 1.17zm.86-1.6h.83l.15-.51-.43-1.07zM37 35.62v-3.78l1 .58v3.83z"/><mask id="a5zfelnqi-1" width="32" height="32" x="12" y="12" maskUnits="userSpaceOnUse"><ellipse cx="28" cy="28.01" fill="#c4c4c4" rx="16" ry="15.85"/></mask><g fill="#e60012" mask="url(#a5zfelnqi-1)"><path d="M17.06 21.6c1.25-.78 2.62-1.65 4.45-1.69l.02.74c-1.7 0-2.83.8-4.1 1.6l-.2.11c-1.31.83-2.73 1.67-4.66 1.4l.1-.73c1.64.23 2.85-.46 4.17-1.29z"/><path d="m18.09 22.43.24.28.24.28-.06.05a8 8 0 0 1-.73.54c-.5.34-1.2.76-2.02 1.11a8.15 8.15 0 0 1-3.33.62 8 8 0 0 1-.34 0l.01-.37.03-.37h.07a7 7 0 0 0 1.03-.03 7.4 7.4 0 0 0 2.23-.52 11.5 11.5 0 0 0 2.58-1.55l.04-.03zm-1.79 2.24.26.26.26.27-.02.01a4 4 0 0 1-.15.14 7.7 7.7 0 0 1-1.94 1.18 7.5 7.5 0 0 1-2.58.46l-.26.01h-.01v-.73a5 5 0 0 0 .24-.01c.16 0 .39-.02.65-.05a6.7 6.7 0 0 0 1.68-.36 6 6 0 0 0 1.84-1.15zm-1.52 2.22.26.26.26.27h-.02a2 2 0 0 1-.1.1l-.3.2c-.25.16-.61.35-1.08.47a6.2 6.2 0 0 1-1.91.18h-.05l.02-.37.02-.37h.04a5 5 0 0 0 .53 0c.34 0 .77-.05 1.16-.15a3.1 3.1 0 0 0 1.16-.58v-.01zm23.79-4.65c-1.27-.8-2.47-1.56-4.1-1.6l.02-.73c1.84.04 3.2.9 4.45 1.7l.22.13c1.33.83 2.53 1.52 4.17 1.3l.1.72c-1.93.27-3.34-.57-4.67-1.4z"/><path d="m37.43 22.99.24-.28.24-.28.01.01.04.03a8 8 0 0 0 .68.5c.47.32 1.12.72 1.9 1.05a7.4 7.4 0 0 0 3.03.56h.3l.02.36.03.37h-.01a5 5 0 0 0-.34 0c-.21 0-.51 0-.86-.04a8.2 8.2 0 0 1-2.47-.58 12.2 12.2 0 0 1-2.8-1.69h-.01zm1.75 2.21.26-.27.26-.26.03.03a5 5 0 0 0 .5.4c.35.26.82.55 1.34.75a6.7 6.7 0 0 0 2.33.4l.23.02h.01V27h-.01a4 4 0 0 1-.26 0l-.7-.06a7.5 7.5 0 0 1-1.88-.4 6.7 6.7 0 0 1-2.1-1.33v-.01zm1.53 2.22.26-.27.26-.26.06.05.23.16c.2.13.5.28.88.38a5.4 5.4 0 0 0 1.69.15h.03l.03.37.02.36h-.05a6 6 0 0 1-.59 0 6 6 0 0 1-1.32-.17 3.8 3.8 0 0 1-1.49-.76v-.01z"/></g></svg>