<svg xmlns="http://www.w3.org/2000/svg" style="height:100%;width:100%" viewBox="0 0 1024 1024"><path fill="#fff" d="M512 1024c285.33 0 512-226.67 512-512C1024 226.87 790 0 512 0 226.87 0 0 226.87 0 512c0 285.34 226.87 512 512 512"/><path fill="#fff" d="M512 980.1C248.82 980.1 43.9 768 43.9 512 43.9 248.83 256 43.9 512 43.9S980.1 256 980.1 512c0 263.38-212.1 468.1-468.1 468.1m0 0"/><path fill="#abccdb" d="M64.41 512c0 247.18 200.41 447.58 447.59 447.58S959.59 759.19 959.59 512 759.18 64.41 512 64.41 64.41 264.82 64.41 512m0 0" data-spm-anchor-id="a313x.search_index.0.i1.44af3a81XMsNDu"/><path fill="#cce0e5" d="M64.41 512c28.11 7 63 14 97.85 14 251.89 0 447.59-202.88 447.59-447.6v-2.91c-27.9-7-63-11.08-97.85-11.08-251.69 0-447.59 195.9-447.59 447.59m0 0"/><path fill="#8bb1c9" d="M671 928.2s158.76-46.15 245.94-226.05C940.24 654 955.07 560 955.07 560L732.36 415.33l-85.3 165.6-309.63 69.94L450.85 626l-120.11 89.21zm0 0"/><path fill="#fff" d="M624.82 369.31c-24.14-44.24-72.39-76.41-132.72-76.41s-112.6 32.17-132.71 76.41c40.22 20.11 84.46 32.17 132.71 32.17s92.5-12.06 132.72-32.17m156.84 116.63c0-4 4-12.06 4-16.09a72.08 72.08 0 0 0-72.38-72.38h-20.09c-24.13 4-36.2 4-52.28 8h-8c-44.24 20.1-92.49 32.17-140.76 32.17-52.28 0-100.53-12.07-140.76-32.17h-8c-24.13-4-24.13-8-48.26-12.07h-28.24a72.08 72.08 0 0 0-72.39 72.39c0 8 0 12.06 4 16.08l4 8.05v4l108.63 197.13c8.05 20.11 32.18 36.2 52.28 36.2h253.37c20.1 0 44.23-12.07 52.28-36.2L777.64 494zm0 0"/></svg>