<svg xmlns="http://www.w3.org/2000/svg" fill="currentColor" style="height:100%;width:100%" viewBox="0 0 1024 1024"><path d="M331.793 790.647c11.756 0 21.206-12.607 21.206-28.106V453.267c0-15.503-9.502-28.11-21.206-28.11s-21.203 12.685-21.203 28.184v309.272c0 15.427 9.5 28.034 21.203 28.034m180.865.204c11.757 0 21.205-12.607 21.205-28.106V453.472c0-15.503-9.498-28.11-21.205-28.11-11.705 0-21.204 12.611-21.204 28.11v309.273c0 15.499 9.448 28.106 21.204 28.106m176.769-.204c11.757 0 21.206-12.607 21.206-28.106V453.267c0-15.503-9.501-28.11-21.206-28.11-11.702 0-21.203 12.611-21.203 28.11V762.54c-.051 15.5 9.447 28.107 21.203 28.107m148.97-643.608H715.005C701.517 98.986 655.379 63.24 599.947 63.24H421.204c-55.431 0-101.647 35.745-115.063 83.802H182.826c-65.821 0-119.185 50.115-119.185 111.733v27.93H93.42l-.127 13.98h60.044l-.286 544.761c0 61.614 53.44 111.806 119.19 111.806h476.822c65.821 0 119.185-50.192 119.185-111.806l-.43-544.76h60.15l-.09-13.98h29.778v-27.93c-.074-61.618-53.438-111.738-119.258-111.738m-426.335-41.122h196.884c24.187 0 45.122 16.6 56.484 41.126H355.576c11.36-24.526 32.299-41.126 56.486-41.126m413.666 737.4c0 30.803-44.132 69.482-77.004 69.482h-476.86c-32.8 0-76.295-38.679-76.295-69.482V298.64h630.16zm13.527-584.54H111.943c0-37.792 27.65-68.532 61.625-68.532h677.573c33.897 0 61.627 30.741 61.627 68.532z"/></svg>