<svg xmlns="http://www.w3.org/2000/svg" fill="none" style="height:100%;width:100%" viewBox="0 0 56 56"><path fill="#0090ba" d="M0 0h56v56H0z"/><path fill="#fff" fill-rule="evenodd" d="M35.293 16H42l-6.23 17.197a1.195 1.195 0 0 1-1.124.791H28.06v-.01c.463-.047.85-.357 1.002-.781zm-7.769 17.725a1.13 1.13 0 0 1-1.037-.684l-1.342-3.7 2.285-6.307c.038-.115.127-.25.148-.28a1.127 1.127 0 0 1 1.964.22l1.337 3.684-2.286 6.31c-.052.144-.127.25-.148.28-.205.288-.54.477-.92.477Zm.488-11.712v.004c-.495.02-.914.34-1.074.787L20.708 40H14l6.23-17.196a1.2 1.2 0 0 1 1.124-.791z" clip-rule="evenodd"/></svg>