<svg xmlns="http://www.w3.org/2000/svg" fill="currentColor" style="height:100%;width:100%" viewBox="0 0 1024 1024"><path d="M384 192a64 64 0 1 0 256 0 64 64 0 1 0-256 0M96 512a48 48 0 1 0 192 0 48 48 0 1 0-192 0m624-224a8 8 0 1 0 32 0 8 8 0 1 0-32 0m-359.8-72.8c-39.8-40.2-104.4-40.2-144.2 0s-39.8 105.4 0 145.6 104.4 40.2 144.2 0 39.8-105.4 0-145.6M800 512a16 16 0 1 0 64 0 16 16 0 1 0-64 0M690 738a24 24 0 1 0 96 0 24 24 0 1 0-96 0m-242 94a32 32 0 1 0 128 0 32 32 0 1 0-128 0m-240-96a40 40 0 1 0 160 0 40 40 0 1 0-160 0"/></svg>